# xmcd
#
# Track frame offsets:
#	150
#	13450
#	25057
#	36197
#	50683
#	61384
#	71907
#	84675
#	97102
#	107369
#	120278
#	130937
#	145329
#	157794
#	171867
#	185087
#	197152
#	210551
#	222160
#	234703
#	247427
#	259940
#	271136
#	284648
#	297979
#	312053
#
# Disc length: 4384 seconds
#
# Revision: 1
# Processed by: cddbd v1.5.2PL0 Copyright (c) Steve Scherf et al.
# Submitted via: audiograbber 1.83.01
#
DISCID=97111e1a
DTITLE=Lefty Frizzell - Life`s Like Poetry CD9
DYEAR=1992
DGENRE=Country
TTITLE0=Honky Tonk Stardust Cowboy
TTITLE1=What Am I Gonna Do
TTITLE2=Give Me More, More, More (Of Your Kisses
TTITLE3=You Babe 
TTITLE4=This Just Ain't A Good Day For Leavin'
TTITLE5=Down By The Railroad Track 
TTITLE6=Let Me Give Her The Flowers 
TTITLE7=If I Had Half The Sense
TTITLE8=Somebody's Words 
TTITLE9=Lucky Arms 
TTITLE10=True Love Needs To Be In Touch
TTITLE11=My House Is Your Honky Tonk 
TTITLE12=I Buy The Wine
TTITLE13=If She Just Helps Me To Get Over You
TTITLE14=Falling
TTITLE15=Railroad Lady
TTITLE16=I Can't Get Over You To Save My Life 
TTITLE17=I Never Go Around Mirrors 
TTITLE18=That's The Way Love Goes
TTITLE19=She Found The Key
TTITLE20=I Wonder Who's Building The Bridge
TTITLE21=My Wishing Room
TTITLE22=I'm Gonna Hang Out My Mind Today
TTITLE23=Sittin' And Thinkin' 
TTITLE24=I Love You A Thousand Ways
TTITLE25=I'm Not That Good At Goodbye
EXTD=
EXTT0=
EXTT1=
EXTT2=
EXTT3=
EXTT4=
EXTT5=
EXTT6=
EXTT7=
EXTT8=
EXTT9=
EXTT10=
EXTT11=
EXTT12=
EXTT13=
EXTT14=
EXTT15=
EXTT16=
EXTT17=
EXTT18=
EXTT19=
EXTT20=
EXTT21=
EXTT22=
EXTT23=
EXTT24=
EXTT25=
PLAYORDER=
